
          <svg width="30"
               height="30"
               viewBox="0 0 30 30"
               xmlns="http://www.w3.org/2000/svg">
            <path fill-rule="evenodd"
                  clip-rule="evenodd"
                  d="M27.1085 10.0456H25.7779V1.08752H4.40864V10.0456H2.87467C1.34643 10.0456 0.103638 11.288 0.103638 12.8166V26.3206C0.103638 27.8475 1.34643 29.0916 2.87467 29.0916H27.1085C28.6372 29.0916 29.8795 27.8475 29.8795 26.3206V12.8166C29.8795 11.288 28.6389 10.0456 27.1085 10.0456ZM11.152 18.1469L1.95437 26.2399V12.8166C1.95437 12.7491 1.9804 12.6909 1.99231 12.6305L11.152 18.1469ZM12.8135 19.148L14.5195 20.175C14.5248 20.1768 14.5297 20.1768 14.535 20.1786C14.6744 20.2597 14.8314 20.3043 14.9933 20.3043C15.1553 20.3043 15.3123 20.2597 15.4553 20.1786C15.4588 20.175 15.4641 20.1768 15.4689 20.175L17.5681 18.9119L27.0379 27.2444H3.60878L12.8135 19.148ZM19.2278 17.9127L27.9961 12.6305C28.0098 12.6909 28.0358 12.7491 28.0358 12.8184V25.6624L19.2278 17.9127ZM6.25584 2.93473H23.9325V12.9181L14.9951 18.3053L6.25584 13.0421V2.93473ZM4.40864 11.9325L4.3429 11.8928H4.40864V11.9325Z"
                  fill="black" />
            <path fill-rule="evenodd"
                  clip-rule="evenodd"
                  d="M8.62895 8.71502H15.0622C15.5726 8.71502 15.986 8.29943 15.986 7.79119C15.986 7.28119 15.5726 6.86737 15.0622 6.86737H8.62895C8.12071 6.86737 7.70557 7.28119 7.70557 7.79119C7.70733 8.30119 8.11895 8.71502 8.62895 8.71502Z"
                  fill="black" />
            <path fill-rule="evenodd"
                  clip-rule="evenodd"
                  d="M8.74633 6.0402H14.9228C15.4328 6.0402 15.8466 5.62682 15.8466 5.11682C15.8466 4.60638 15.4328 4.19299 14.9228 4.19299H8.74633C8.23633 4.19299 7.82251 4.60638 7.82251 5.11682C7.82251 5.62682 8.23633 6.0402 8.74633 6.0402Z"
                  fill="black" />
            <path fill-rule="evenodd"
                  clip-rule="evenodd"
                  d="M7.82251 10.4281C7.82251 10.9381 8.23633 11.3515 8.74633 11.3515H18.6194C19.1294 11.3515 19.5432 10.9381 19.5432 10.4281C19.5432 9.91765 19.1294 9.50427 18.6194 9.50427H8.74633C8.23633 9.50427 7.82251 9.91765 7.82251 10.4281Z"
                  fill="black" />
          </svg>